<svg version="1.1" xmlns="http://www.w3.org/2000/svg" viewBox="0 0 71.32400581479669 72.7869548043609" width="71.32400581479669" height="72.7869548043609">
  <!-- svg-source:excalidraw -->
  
  <defs>
    <style class="style-fonts">
      @font-face {
        font-family: "Virgil";
        src: url("https://excalidraw.com/Virgil.woff2");
      }
      @font-face {
        font-family: "Cascadia";
        src: url("https://excalidraw.com/Cascadia.woff2");
      }
    </style>
  </defs>
  <g stroke-linecap="round" transform="translate(12.184412054083623 12.074976920376798) rotate(0.339184881596639 24.536517426721048 11.315954617954503)"><path d="M0 0 L49.07 0 L49.07 22.63 L0 22.63" stroke="none" stroke-width="0" fill="#000000"></path><path d="M0 0 C13.47 0, 26.95 0, 49.07 0 M0 0 C18.65 0, 37.3 0, 49.07 0 M49.07 0 C49.07 7.4, 49.07 14.8, 49.07 22.63 M49.07 0 C49.07 5.56, 49.07 11.13, 49.07 22.63 M49.07 22.63 C37.83 22.63, 26.59 22.63, 0 22.63 M49.07 22.63 C38.41 22.63, 27.74 22.63, 0 22.63 M0 22.63 C0 17.3, 0 11.96, 0 0 M0 22.63 C0 17.25, 0 11.88, 0 0" stroke="#495057" stroke-width="1" fill="none"></path></g><g stroke-linecap="round" transform="translate(11.823585204650954 40.00999114414151) rotate(0.339184881596639 24.536517426721048 11.315954617954503)"><path d="M0 0 L49.07 0 L49.07 22.63 L0 22.63" stroke="none" stroke-width="0" fill="#000000"></path><path d="M0 0 C14.76 0, 29.51 0, 49.07 0 M0 0 C16.12 0, 32.23 0, 49.07 0 M49.07 0 C49.07 5.97, 49.07 11.93, 49.07 22.63 M49.07 0 C49.07 8.48, 49.07 16.96, 49.07 22.63 M49.07 22.63 C30.73 22.63, 12.39 22.63, 0 22.63 M49.07 22.63 C38.31 22.63, 27.54 22.63, 0 22.63 M0 22.63 C0 17.41, 0 12.18, 0 0 M0 22.63 C0 14.25, 0 5.87, 0 0" stroke="#495057" stroke-width="1" fill="none"></path></g><g stroke-linecap="round" transform="translate(10.427385756703643 10.145054424310388) rotate(0.339184881596639 24.536517426721048 11.315954617954503)"><path d="M0 0 L49.07 0 L49.07 22.63 L0 22.63" stroke="none" stroke-width="0" fill="#faf1da"></path><path d="M0 0 C18.1 0, 36.21 0, 49.07 0 M0 0 C12.06 0, 24.13 0, 49.07 0 M49.07 0 C49.07 5.71, 49.07 11.41, 49.07 22.63 M49.07 0 C49.07 8.42, 49.07 16.84, 49.07 22.63 M49.07 22.63 C38.9 22.63, 28.73 22.63, 0 22.63 M49.07 22.63 C38.35 22.63, 27.63 22.63, 0 22.63 M0 22.63 C0 17.7, 0 12.77, 0 0 M0 22.63 C0 15.68, 0 8.72, 0 0" stroke="#495057" stroke-width="1" fill="none"></path></g><g stroke-linecap="round" transform="translate(10.066558907270974 38.0800686480751) rotate(0.339184881596639 24.536517426721048 11.315954617954503)"><path d="M0 0 L49.07 0 L49.07 22.63 L0 22.63" stroke="none" stroke-width="0" fill="#faf1da"></path><path d="M0 0 C15.27 0, 30.54 0, 49.07 0 M0 0 C15.65 0, 31.31 0, 49.07 0 M49.07 0 C49.07 7.45, 49.07 14.91, 49.07 22.63 M49.07 0 C49.07 8.9, 49.07 17.8, 49.07 22.63 M49.07 22.63 C35.32 22.63, 21.56 22.63, 0 22.63 M49.07 22.63 C36.78 22.63, 24.48 22.63, 0 22.63 M0 22.63 C0 17.27, 0 11.91, 0 0 M0 22.63 C0 14.19, 0 5.74, 0 0" stroke="#495057" stroke-width="1" fill="none"></path></g></svg>