<svg version="1.1" xmlns="http://www.w3.org/2000/svg" viewBox="0 0 70.41466396713622 72.93032393426074" width="70.41466396713622" height="72.93032393426074">
  <!-- svg-source:excalidraw -->
  
  <defs>
    <style class="style-fonts">
      @font-face {
        font-family: "Virgil";
        src: url("https://excalidraw.com/Virgil.woff2");
      }
      @font-face {
        font-family: "Cascadia";
        src: url("https://excalidraw.com/Cascadia.woff2");
      }
    </style>
  </defs>
  <g stroke-linecap="round" transform="translate(11.759190237298753 12.035665477721068) rotate(0 24.32773686491896 25.447329228269894)"><path d="M48.66 25.45 C48.66 26.92, 48.53 28.42, 48.29 29.87 C48.04 31.32, 47.67 32.77, 47.19 34.15 C46.71 35.53, 46.1 36.9, 45.4 38.17 C44.69 39.45, 43.87 40.68, 42.96 41.8 C42.06 42.93, 41.04 43.99, 39.97 44.94 C38.89 45.89, 37.71 46.75, 36.49 47.49 C35.27 48.22, 33.97 48.86, 32.65 49.36 C31.33 49.86, 29.94 50.25, 28.55 50.51 C27.17 50.76, 25.74 50.89, 24.33 50.89 C22.92 50.89, 21.49 50.76, 20.1 50.51 C18.72 50.25, 17.33 49.86, 16.01 49.36 C14.68 48.86, 13.38 48.22, 12.16 47.49 C10.94 46.75, 9.77 45.89, 8.69 44.94 C7.61 43.99, 6.6 42.93, 5.69 41.8 C4.79 40.68, 3.96 39.45, 3.26 38.17 C2.56 36.9, 1.95 35.53, 1.47 34.15 C0.99 32.77, 0.61 31.32, 0.37 29.87 C0.13 28.42, 0 26.92, 0 25.45 C0 23.97, 0.13 22.48, 0.37 21.03 C0.61 19.58, 0.99 18.13, 1.47 16.74 C1.95 15.36, 2.56 14, 3.26 12.72 C3.96 11.45, 4.79 10.22, 5.69 9.09 C6.6 7.96, 7.61 6.9, 8.69 5.95 C9.77 5.01, 10.94 4.15, 12.16 3.41 C13.38 2.67, 14.68 2.04, 16.01 1.53 C17.33 1.03, 18.72 0.64, 20.1 0.39 C21.49 0.13, 22.92 0, 24.33 0 C25.74 0, 27.17 0.13, 28.55 0.39 C29.94 0.64, 31.33 1.03, 32.65 1.53 C33.97 2.04, 35.27 2.67, 36.49 3.41 C37.71 4.15, 38.89 5.01, 39.97 5.95 C41.04 6.9, 42.06 7.96, 42.96 9.09 C43.87 10.22, 44.69 11.45, 45.4 12.72 C46.1 14, 46.71 15.36, 47.19 16.74 C47.67 18.13, 48.04 19.58, 48.29 21.03 C48.53 22.48, 48.59 24.71, 48.66 25.45 C48.72 26.18, 48.72 24.71, 48.66 25.45" stroke="#000000" stroke-width="4" fill="none"></path></g><g transform="translate(25.21580180608362 37.60483351874336) rotate(0 11.127938090047337 -0.24843695855656733)" stroke="none"><path fill="#000000" d="M -0.01,-2.45 Q -0.01,-2.45 1.81,-2.39 3.64,-2.33 5.26,-2.35 6.87,-2.36 8.33,-2.39 9.79,-2.43 11.01,-2.47 12.22,-2.52 13.62,-2.62 15.01,-2.73 16.42,-2.90 17.83,-3.07 19.86,-3.25 21.90,-3.44 22.37,-3.40 22.84,-3.36 23.27,-3.18 23.71,-2.99 24.06,-2.67 24.41,-2.36 24.65,-1.95 24.88,-1.54 24.97,-1.07 25.06,-0.61 25.00,-0.14 24.94,0.32 24.73,0.74 24.52,1.17 24.18,1.50 23.85,1.84 23.43,2.05 23.00,2.26 22.53,2.32 22.07,2.39 21.60,2.30 21.14,2.21 20.73,1.98 20.31,1.75 20.00,1.40 19.68,1.05 19.49,0.61 19.30,0.18 19.27,-0.28 19.23,-0.76 19.34,-1.21 19.45,-1.67 19.71,-2.07 19.96,-2.47 20.33,-2.77 20.70,-3.07 21.14,-3.23 21.58,-3.39 22.06,-3.41 22.53,-3.42 22.98,-3.28 23.43,-3.14 23.82,-2.87 24.20,-2.59 24.48,-2.21 24.76,-1.83 24.90,-1.38 25.04,-0.92 25.02,-0.45 25.01,0.01 24.85,0.46 24.69,0.90 24.39,1.27 24.10,1.64 23.70,1.89 23.30,2.15 22.84,2.26 22.38,2.38 22.38,2.38 22.38,2.38 19.81,2.50 17.23,2.63 16.13,2.54 15.02,2.45 13.64,2.35 12.25,2.26 11.05,2.22 9.84,2.19 8.40,2.19 6.95,2.19 5.31,2.24 3.68,2.28 1.85,2.36 0.01,2.45 -0.27,2.42 -0.56,2.38 -0.84,2.28 -1.12,2.18 -1.36,2.01 -1.61,1.85 -1.81,1.63 -2.01,1.41 -2.14,1.14 -2.28,0.88 -2.36,0.60 -2.43,0.31 -2.43,0.01 -2.43,-0.27 -2.37,-0.56 -2.30,-0.85 -2.16,-1.11 -2.03,-1.37 -1.83,-1.60 -1.64,-1.82 -1.39,-1.99 -1.15,-2.16 -0.88,-2.27 -0.60,-2.37 -0.31,-2.41 -0.01,-2.45 -0.01,-2.45 L -0.01,-2.45 Z"></path></g><g transform="translate(37.19093343619352 28.560787771920104) rotate(0 -0.14655429416416155 9.41160705143858)" stroke="none"><path fill="#000000" d="M 2.41,0.05 Q 2.41,0.05 2.22,2.23 2.02,4.40 1.98,6.12 1.93,7.84 1.94,9.31 1.94,10.78 1.97,12.02 2.00,13.26 2.07,15.98 2.15,18.70 2.09,19.09 2.03,19.47 1.86,19.81 1.68,20.16 1.40,20.43 1.12,20.70 0.77,20.86 0.42,21.03 0.04,21.08 -0.34,21.12 -0.72,21.05 -1.10,20.97 -1.43,20.77 -1.77,20.57 -2.02,20.28 -2.27,19.99 -2.42,19.63 -2.57,19.27 -2.60,18.89 -2.62,18.50 -2.52,18.12 -2.42,17.75 -2.21,17.43 -1.99,17.10 -1.69,16.86 -1.38,16.63 -1.02,16.50 -0.65,16.37 -0.26,16.37 0.11,16.36 0.48,16.48 0.85,16.60 1.16,16.83 1.47,17.06 1.70,17.38 1.92,17.70 2.02,18.07 2.13,18.44 2.12,18.83 2.10,19.22 1.96,19.58 1.82,19.94 1.57,20.24 1.33,20.54 1.00,20.74 0.67,20.95 0.29,21.03 -0.08,21.12 -0.46,21.08 -0.85,21.05 -1.20,20.89 -1.56,20.73 -1.84,20.47 -2.13,20.20 -2.31,19.86 -2.50,19.52 -2.56,19.14 -2.63,18.76 -2.63,18.76 -2.63,18.76 -2.57,15.97 -2.52,13.18 -2.45,11.94 -2.37,10.70 -2.32,9.23 -2.26,7.76 -2.24,6.04 -2.22,4.31 -2.31,2.12 -2.41,-0.05 -2.37,-0.34 -2.33,-0.62 -2.22,-0.89 -2.11,-1.16 -1.94,-1.40 -1.77,-1.64 -1.54,-1.82 -1.32,-2.01 -1.06,-2.14 -0.80,-2.27 -0.52,-2.33 -0.23,-2.40 0.05,-2.39 0.34,-2.38 0.62,-2.31 0.90,-2.23 1.16,-2.09 1.41,-1.95 1.62,-1.75 1.84,-1.55 2.00,-1.31 2.16,-1.07 2.25,-0.79 2.35,-0.52 2.38,-0.23 2.41,0.05 2.41,0.05 L 2.41,0.05 Z"></path></g><g stroke-linecap="round" transform="translate(9.999999999999545 9.999999999999886) rotate(0 24.32773686491896 25.447329228269894)"><path d="M48.66 25.45 C48.66 26.92, 48.53 28.42, 48.29 29.87 C48.04 31.32, 47.67 32.77, 47.19 34.15 C46.71 35.53, 46.1 36.9, 45.4 38.17 C44.69 39.45, 43.87 40.68, 42.96 41.8 C42.06 42.93, 41.04 43.99, 39.97 44.94 C38.89 45.89, 37.71 46.75, 36.49 47.49 C35.27 48.22, 33.97 48.86, 32.65 49.36 C31.33 49.86, 29.94 50.25, 28.55 50.51 C27.17 50.76, 25.74 50.89, 24.33 50.89 C22.92 50.89, 21.49 50.76, 20.1 50.51 C18.72 50.25, 17.33 49.86, 16.01 49.36 C14.68 48.86, 13.38 48.22, 12.16 47.49 C10.94 46.75, 9.77 45.89, 8.69 44.94 C7.61 43.99, 6.6 42.93, 5.69 41.8 C4.79 40.68, 3.96 39.45, 3.26 38.17 C2.56 36.9, 1.95 35.53, 1.47 34.15 C0.99 32.77, 0.61 31.32, 0.37 29.87 C0.13 28.42, 0 26.92, 0 25.45 C0 23.97, 0.13 22.48, 0.37 21.03 C0.61 19.58, 0.99 18.13, 1.47 16.74 C1.95 15.36, 2.56 14, 3.26 12.72 C3.96 11.45, 4.79 10.22, 5.69 9.09 C6.6 7.96, 7.61 6.9, 8.69 5.95 C9.77 5.01, 10.94 4.15, 12.16 3.41 C13.38 2.67, 14.68 2.04, 16.01 1.53 C17.33 1.03, 18.72 0.64, 20.1 0.39 C21.49 0.13, 22.92 0, 24.33 0 C25.74 0, 27.17 0.13, 28.55 0.39 C29.94 0.64, 31.33 1.03, 32.65 1.53 C33.97 2.04, 35.27 2.67, 36.49 3.41 C37.71 4.15, 38.89 5.01, 39.97 5.95 C41.04 6.9, 42.06 7.96, 42.96 9.09 C43.87 10.22, 44.69 11.45, 45.4 12.72 C46.1 14, 46.71 15.36, 47.19 16.74 C47.67 18.13, 48.04 19.58, 48.29 21.03 C48.53 22.48, 48.59 24.71, 48.66 25.45 C48.72 26.18, 48.72 24.71, 48.66 25.45" stroke="#136a6a" stroke-width="4" fill="none"></path></g><g transform="translate(23.45661156878532 35.56916804102218) rotate(0 11.127938090047337 -0.24843695855656733)" stroke="none"><path fill="#136a6a" d="M -0.01,-2.45 Q -0.01,-2.45 1.81,-2.39 3.64,-2.33 5.26,-2.35 6.87,-2.36 8.33,-2.39 9.79,-2.43 11.01,-2.47 12.22,-2.52 13.62,-2.62 15.01,-2.73 16.42,-2.90 17.83,-3.07 19.90,-3.26 21.97,-3.45 22.44,-3.41 22.91,-3.37 23.35,-3.19 23.78,-3.00 24.14,-2.69 24.49,-2.37 24.72,-1.96 24.96,-1.55 25.05,-1.08 25.14,-0.61 25.08,-0.15 25.01,0.31 24.80,0.74 24.59,1.16 24.26,1.50 23.92,1.84 23.50,2.05 23.08,2.26 22.61,2.32 22.14,2.39 21.67,2.30 21.21,2.21 20.79,1.98 20.38,1.75 20.06,1.40 19.74,1.04 19.56,0.61 19.37,0.17 19.33,-0.29 19.29,-0.76 19.40,-1.22 19.52,-1.68 19.77,-2.08 20.03,-2.48 20.39,-2.78 20.76,-3.08 21.21,-3.24 21.65,-3.41 22.13,-3.42 22.60,-3.43 23.05,-3.29 23.51,-3.16 23.89,-2.88 24.28,-2.60 24.55,-2.22 24.83,-1.84 24.97,-1.38 25.11,-0.93 25.10,-0.46 25.09,0.01 24.93,0.45 24.76,0.90 24.47,1.27 24.17,1.64 23.77,1.89 23.37,2.15 22.91,2.26 22.45,2.38 22.45,2.38 22.45,2.38 19.84,2.50 17.23,2.63 16.13,2.54 15.02,2.45 13.64,2.35 12.25,2.26 11.05,2.22 9.84,2.19 8.40,2.19 6.95,2.19 5.31,2.24 3.68,2.28 1.85,2.36 0.01,2.45 -0.27,2.42 -0.56,2.38 -0.84,2.28 -1.12,2.18 -1.36,2.01 -1.61,1.85 -1.81,1.63 -2.01,1.41 -2.14,1.14 -2.28,0.88 -2.36,0.60 -2.43,0.31 -2.43,0.01 -2.43,-0.27 -2.37,-0.56 -2.30,-0.85 -2.16,-1.11 -2.03,-1.37 -1.83,-1.60 -1.64,-1.82 -1.39,-1.99 -1.15,-2.16 -0.88,-2.27 -0.60,-2.37 -0.31,-2.41 -0.01,-2.45 -0.01,-2.45 L -0.01,-2.45 Z"></path></g><g transform="translate(35.431743198894765 26.52512229419881) rotate(0 -0.14655429416416155 9.41160705143858)" stroke="none"><path fill="#136a6a" d="M 2.41,0.05 Q 2.41,0.05 2.22,2.23 2.02,4.40 1.98,6.12 1.93,7.84 1.94,9.31 1.94,10.78 1.97,12.02 2.00,13.26 2.08,16.03 2.16,18.79 2.10,19.17 2.05,19.56 1.87,19.91 1.69,20.25 1.41,20.52 1.13,20.79 0.78,20.96 0.43,21.13 0.04,21.18 -0.34,21.22 -0.72,21.14 -1.10,21.07 -1.44,20.87 -1.77,20.67 -2.03,20.38 -2.28,20.08 -2.43,19.72 -2.58,19.36 -2.61,18.97 -2.63,18.59 -2.53,18.21 -2.43,17.83 -2.22,17.51 -2.00,17.18 -1.69,16.94 -1.39,16.70 -1.02,16.58 -0.65,16.45 -0.26,16.44 0.12,16.44 0.49,16.56 0.86,16.68 1.17,16.91 1.48,17.14 1.71,17.46 1.93,17.78 2.04,18.16 2.15,18.53 2.13,18.92 2.11,19.31 1.97,19.67 1.83,20.04 1.58,20.34 1.34,20.63 1.00,20.84 0.67,21.04 0.29,21.13 -0.08,21.22 -0.46,21.18 -0.85,21.15 -1.21,20.99 -1.56,20.83 -1.85,20.56 -2.13,20.30 -2.32,19.96 -2.51,19.61 -2.57,19.23 -2.64,18.85 -2.64,18.85 -2.64,18.85 -2.58,16.01 -2.52,13.18 -2.45,11.94 -2.37,10.70 -2.32,9.23 -2.26,7.76 -2.24,6.04 -2.22,4.31 -2.31,2.12 -2.41,-0.05 -2.37,-0.34 -2.33,-0.62 -2.22,-0.89 -2.11,-1.16 -1.94,-1.40 -1.77,-1.64 -1.54,-1.82 -1.32,-2.01 -1.06,-2.14 -0.80,-2.27 -0.52,-2.33 -0.23,-2.40 0.05,-2.39 0.34,-2.38 0.62,-2.31 0.90,-2.23 1.16,-2.09 1.41,-1.95 1.62,-1.75 1.84,-1.55 2.00,-1.31 2.16,-1.07 2.25,-0.79 2.35,-0.52 2.38,-0.23 2.41,0.05 2.41,0.05 L 2.41,0.05 Z"></path></g></svg>