<svg version="1.1" xmlns="http://www.w3.org/2000/svg" viewBox="0 0 69.1093365935144 65.87828331224569" width="69.1093365935144" height="65.87828331224569">
  <!-- svg-source:excalidraw -->
  
  <defs>
    <style class="style-fonts">
      @font-face {
        font-family: "Virgil";
        src: url("https://excalidraw.com/Virgil.woff2");
      }
      @font-face {
        font-family: "Cascadia";
        src: url("https://excalidraw.com/Cascadia.woff2");
      }
    </style>
  </defs>
  <g transform="translate(11.704530050294125 54.698959286075706) rotate(0 23.702403271610137 -8.57338177129725)" stroke="none"><path fill="#000000" d="M -2.22,-1.48 Q -2.22,-1.48 -1.69,-2.32 -1.17,-3.15 -0.54,-4.27 0.09,-5.38 0.67,-6.35 1.25,-7.33 1.93,-8.34 2.60,-9.35 3.28,-10.28 3.95,-11.20 4.69,-12.06 5.43,-12.93 6.16,-13.72 6.89,-14.51 8.24,-15.76 9.58,-17.01 10.52,-17.66 11.45,-18.31 12.50,-18.99 13.56,-19.67 14.97,-20.31 16.38,-20.94 17.73,-21.24 19.08,-21.54 20.65,-21.68 22.22,-21.82 23.34,-21.81 24.46,-21.81 25.56,-21.61 26.67,-21.42 28.23,-20.93 29.80,-20.43 31.05,-19.87 32.31,-19.30 33.27,-18.76 34.24,-18.22 35.33,-17.54 36.42,-16.87 37.58,-15.95 38.74,-15.04 39.49,-14.17 40.24,-13.30 41.15,-12.38 42.06,-11.46 43.29,-10.31 44.52,-9.17 45.27,-8.32 46.02,-7.48 46.84,-6.59 47.65,-5.70 48.42,-4.48 49.19,-3.27 49.92,-1.94 50.65,-0.62 50.82,-0.19 50.98,0.22 51.04,0.66 51.10,1.11 51.05,1.56 50.99,2.01 50.84,2.44 50.68,2.86 50.43,3.23 50.17,3.61 49.84,3.91 49.50,4.21 49.10,4.43 48.71,4.64 48.27,4.75 47.83,4.86 47.38,4.87 46.93,4.87 46.49,4.77 46.05,4.66 45.65,4.45 45.24,4.25 44.90,3.95 44.56,3.65 44.30,3.28 44.04,2.91 44.51,3.48 44.98,4.05 44.58,3.60 44.17,3.14 43.94,2.58 43.70,2.02 43.66,1.42 43.61,0.81 43.76,0.23 43.91,-0.35 44.24,-0.86 44.57,-1.37 45.05,-1.75 45.53,-2.12 46.10,-2.33 46.67,-2.53 47.27,-2.54 47.88,-2.56 48.46,-2.37 49.04,-2.19 49.53,-1.83 50.02,-1.48 50.37,-0.98 50.72,-0.49 50.89,0.08 51.07,0.67 51.04,1.27 51.02,1.88 50.81,2.45 50.60,3.01 50.21,3.48 49.83,3.95 49.32,4.28 48.80,4.60 48.21,4.74 47.62,4.88 47.02,4.83 46.42,4.78 45.86,4.53 45.30,4.29 44.86,3.88 44.41,3.47 44.11,2.94 43.82,2.41 43.71,1.82 43.60,1.22 43.68,0.62 43.77,0.02 44.04,-0.51 44.32,-1.05 44.75,-1.48 45.18,-1.91 45.73,-2.17 46.27,-2.44 46.87,-2.51 47.48,-2.59 48.07,-2.47 48.67,-2.35 49.66,-1.49 50.65,-0.62 50.82,-0.19 50.98,0.22 51.04,0.66 51.10,1.11 51.05,1.56 50.99,2.01 50.84,2.43 50.68,2.86 50.43,3.23 50.17,3.61 49.84,3.91 49.50,4.21 49.10,4.43 48.71,4.64 48.27,4.75 47.83,4.86 47.38,4.87 46.93,4.87 46.49,4.77 46.05,4.66 45.65,4.45 45.24,4.25 44.90,3.95 44.56,3.65 44.30,3.28 44.04,2.92 42.78,0.76 41.53,-1.39 40.78,-2.23 40.03,-3.07 39.19,-4.02 38.35,-4.97 37.42,-5.77 36.48,-6.57 35.53,-7.60 34.58,-8.63 33.84,-9.49 33.11,-10.35 32.14,-10.99 31.17,-11.64 30.12,-12.26 29.08,-12.87 27.71,-13.44 26.33,-14.01 25.24,-14.34 24.14,-14.68 22.80,-14.67 21.46,-14.66 20.26,-14.53 19.07,-14.40 17.81,-13.92 16.56,-13.44 15.47,-12.80 14.38,-12.16 13.33,-11.37 12.28,-10.58 11.22,-9.55 10.15,-8.52 9.19,-7.51 8.23,-6.51 7.55,-5.67 6.87,-4.83 5.89,-3.56 4.92,-2.29 4.14,-1.20 3.36,-0.12 2.79,0.68 2.22,1.48 2.01,1.73 1.80,1.97 1.54,2.16 1.27,2.34 0.97,2.46 0.67,2.58 0.35,2.63 0.03,2.67 -0.28,2.64 -0.60,2.60 -0.90,2.49 -1.20,2.38 -1.47,2.20 -1.74,2.02 -1.96,1.78 -2.17,1.55 -2.33,1.26 -2.48,0.98 -2.56,0.67 -2.65,0.36 -2.65,0.03 -2.65,-0.28 -2.58,-0.59 -2.51,-0.91 -2.36,-1.19 -2.22,-1.48 -2.22,-1.48 L -2.22,-1.48 Z"></path></g><g transform="translate(26.783213781247014 15.070044825632863) rotate(0 5.029772857250009 1.7219307165152031)" stroke="none"><path fill="#000000" d="M 2.43,0.41 Q 2.43,0.41 2.39,0.93 2.35,1.44 3.44,2.04 4.53,2.64 5.62,2.59 6.71,2.54 6.03,1.66 5.36,0.77 4.22,0.76 3.09,0.74 4.07,1.22 5.05,1.70 5.49,0.34 5.94,-1.00 6.34,-1.23 6.75,-1.46 7.20,-1.59 7.65,-1.71 8.11,-1.73 8.58,-1.74 9.04,-1.64 9.49,-1.54 9.91,-1.34 10.33,-1.14 10.69,-0.84 11.05,-0.54 11.32,-0.16 11.60,0.20 11.78,0.63 11.96,1.06 12.03,1.53 12.10,1.99 12.05,2.45 12.01,2.92 11.86,3.36 11.71,3.80 11.45,4.19 11.20,4.58 10.86,4.90 10.52,5.22 8.45,5.36 6.37,5.50 5.88,5.11 5.39,4.73 5.04,4.20 4.70,3.68 4.54,3.07 4.38,2.47 4.42,1.84 4.46,1.22 4.70,0.64 4.94,0.06 5.35,-0.40 5.77,-0.87 6.31,-1.18 6.85,-1.50 7.46,-1.63 8.07,-1.75 8.69,-1.68 9.32,-1.60 9.88,-1.33 10.44,-1.06 10.89,-0.62 11.34,-0.19 11.63,0.36 11.91,0.92 12.01,1.54 12.10,2.16 11.99,2.77 11.88,3.39 11.58,3.94 11.28,4.49 10.82,4.91 10.36,5.34 9.78,5.59 9.21,5.84 8.59,5.90 7.97,5.96 7.36,5.82 6.75,5.68 6.22,5.35 5.68,5.02 5.29,4.53 4.89,4.05 4.66,3.47 4.44,2.88 4.42,2.26 4.39,1.63 4.57,1.03 4.74,0.43 5.10,-0.07 5.46,-0.59 5.96,-0.96 6.47,-1.33 7.06,-1.52 7.66,-1.71 8.28,-1.70 8.91,-1.70 7.42,-1.35 5.94,-1.00 6.34,-1.23 6.75,-1.46 7.20,-1.59 7.65,-1.71 8.11,-1.73 8.58,-1.74 9.04,-1.64 9.49,-1.54 9.91,-1.34 10.33,-1.14 10.69,-0.84 11.05,-0.54 11.32,-0.16 11.60,0.20 11.78,0.63 11.96,1.06 12.03,1.53 12.10,1.99 12.05,2.45 12.01,2.92 11.86,3.36 11.71,3.80 11.45,4.19 11.20,4.58 10.86,4.90 10.52,5.22 9.46,6.86 8.40,8.51 7.29,8.91 6.17,9.32 4.92,9.34 3.67,9.37 2.50,9.05 1.34,8.74 0.31,8.07 -0.70,7.40 -1.59,6.62 -2.47,5.84 -3.05,4.79 -3.62,3.75 -3.94,2.68 -4.25,1.61 -4.20,0.37 -4.16,-0.85 -3.64,-2.16 -3.12,-3.47 -2.19,-4.44 -1.25,-5.40 0.03,-5.94 1.33,-6.48 2.52,-6.57 3.71,-6.65 4.88,-6.59 6.05,-6.54 7.16,-6.24 8.26,-5.95 9.46,-5.22 10.66,-4.49 11.52,-3.80 12.39,-3.11 13.03,-2.11 13.67,-1.12 13.91,0.14 14.14,1.41 14.00,2.64 13.85,3.87 13.41,4.87 12.98,5.86 12.08,6.79 11.17,7.71 10.15,8.35 9.12,8.99 8.02,9.30 6.92,9.61 5.53,9.44 4.14,9.27 2.97,8.73 1.80,8.19 0.79,7.56 -0.20,6.94 -1.05,6.06 -1.90,5.17 -2.37,4.13 -2.85,3.09 -2.78,1.83 -2.70,0.58 -2.57,0.08 -2.43,-0.41 -2.35,-0.70 -2.26,-0.98 -2.11,-1.24 -1.96,-1.50 -1.75,-1.71 -1.55,-1.92 -1.29,-2.08 -1.04,-2.24 -0.76,-2.33 -0.47,-2.42 -0.17,-2.45 0.11,-2.47 0.41,-2.42 0.70,-2.37 0.98,-2.25 1.25,-2.13 1.49,-1.95 1.72,-1.77 1.91,-1.53 2.10,-1.30 2.22,-1.03 2.35,-0.76 2.41,-0.47 2.46,-0.18 2.45,0.11 2.43,0.41 2.43,0.41 L 2.43,0.41 Z"></path></g><g transform="translate(10 52.594949152104164) rotate(0 23.702403271610137 -8.57338177129725)" stroke="none"><path fill="#136a6a" d="M -2.22,-1.48 Q -2.22,-1.48 -1.69,-2.32 -1.17,-3.15 -0.54,-4.27 0.09,-5.38 0.67,-6.35 1.25,-7.33 1.93,-8.34 2.60,-9.35 3.28,-10.28 3.95,-11.20 4.69,-12.06 5.43,-12.93 6.16,-13.72 6.89,-14.51 8.24,-15.76 9.58,-17.01 10.52,-17.66 11.45,-18.31 12.50,-18.99 13.56,-19.67 14.97,-20.31 16.38,-20.94 17.73,-21.24 19.08,-21.54 20.65,-21.68 22.22,-21.82 23.34,-21.81 24.46,-21.81 25.56,-21.61 26.67,-21.42 28.23,-20.93 29.80,-20.43 31.05,-19.87 32.31,-19.30 33.27,-18.76 34.24,-18.22 35.33,-17.54 36.42,-16.87 37.58,-15.95 38.74,-15.04 39.49,-14.17 40.24,-13.30 41.15,-12.38 42.06,-11.46 43.29,-10.31 44.52,-9.17 45.27,-8.32 46.02,-7.48 46.84,-6.59 47.65,-5.70 48.42,-4.48 49.19,-3.27 49.92,-1.95 50.65,-0.62 50.81,-0.20 50.98,0.22 51.03,0.66 51.09,1.11 51.04,1.56 50.99,2.01 50.83,2.43 50.68,2.86 50.42,3.23 50.17,3.61 49.83,3.91 49.50,4.21 49.10,4.42 48.70,4.64 48.26,4.75 47.83,4.86 47.37,4.87 46.92,4.87 46.48,4.76 46.04,4.66 45.64,4.45 45.24,4.25 44.90,3.95 44.56,3.65 44.30,3.28 44.04,2.91 44.51,3.48 44.97,4.05 44.57,3.59 44.17,3.14 43.93,2.58 43.70,2.02 43.65,1.42 43.61,0.81 43.76,0.22 43.91,-0.35 44.24,-0.86 44.57,-1.37 45.05,-1.75 45.52,-2.12 46.09,-2.33 46.66,-2.53 47.27,-2.55 47.88,-2.56 48.45,-2.38 49.03,-2.19 49.52,-1.84 50.01,-1.48 50.36,-0.98 50.71,-0.49 50.89,0.08 51.06,0.66 51.04,1.27 51.02,1.88 50.81,2.44 50.59,3.01 50.21,3.48 49.83,3.95 49.31,4.28 48.80,4.60 48.21,4.74 47.62,4.88 47.02,4.83 46.41,4.78 45.86,4.53 45.30,4.29 44.85,3.88 44.40,3.47 44.11,2.94 43.81,2.41 43.70,1.81 43.60,1.22 43.68,0.62 43.77,0.02 44.04,-0.51 44.31,-1.06 44.75,-1.48 45.18,-1.91 45.72,-2.17 46.27,-2.44 46.87,-2.52 47.47,-2.59 48.07,-2.47 48.66,-2.36 49.66,-1.49 50.65,-0.62 50.81,-0.20 50.98,0.22 51.03,0.66 51.09,1.11 51.04,1.56 50.99,2.01 50.83,2.43 50.68,2.86 50.42,3.23 50.17,3.61 49.84,3.91 49.50,4.21 49.10,4.42 48.70,4.64 48.26,4.75 47.83,4.86 47.38,4.87 46.92,4.87 46.48,4.76 46.04,4.66 45.64,4.45 45.24,4.25 44.90,3.95 44.56,3.65 44.30,3.28 44.04,2.91 42.78,0.76 41.53,-1.39 40.78,-2.23 40.03,-3.07 39.19,-4.02 38.35,-4.97 37.42,-5.77 36.48,-6.57 35.53,-7.60 34.58,-8.63 33.84,-9.49 33.11,-10.35 32.14,-10.99 31.17,-11.64 30.12,-12.26 29.08,-12.87 27.71,-13.44 26.33,-14.01 25.24,-14.34 24.14,-14.68 22.80,-14.67 21.46,-14.66 20.26,-14.53 19.07,-14.40 17.81,-13.92 16.56,-13.44 15.47,-12.80 14.38,-12.16 13.33,-11.37 12.28,-10.58 11.22,-9.55 10.15,-8.52 9.19,-7.51 8.23,-6.51 7.55,-5.67 6.87,-4.83 5.89,-3.56 4.92,-2.29 4.14,-1.20 3.36,-0.12 2.79,0.68 2.22,1.48 2.01,1.73 1.80,1.97 1.54,2.16 1.27,2.34 0.97,2.46 0.67,2.58 0.35,2.63 0.03,2.67 -0.28,2.64 -0.60,2.60 -0.90,2.49 -1.20,2.38 -1.47,2.20 -1.74,2.02 -1.96,1.78 -2.17,1.55 -2.33,1.26 -2.48,0.98 -2.56,0.67 -2.65,0.36 -2.65,0.03 -2.65,-0.28 -2.58,-0.59 -2.51,-0.91 -2.36,-1.19 -2.22,-1.48 -2.22,-1.48 L -2.22,-1.48 Z"></path></g><g transform="translate(25.060977284228102 12.97036724795953) rotate(0 5.029772857250009 1.7219307165152031)" stroke="none"><path fill="#136a6a" d="M 2.43,0.41 Q 2.43,0.41 2.39,0.93 2.35,1.44 3.44,2.04 4.53,2.64 5.62,2.59 6.71,2.54 6.03,1.66 5.36,0.77 4.22,0.76 3.09,0.74 4.07,1.22 5.05,1.70 5.49,0.34 5.93,-1.00 6.34,-1.23 6.75,-1.46 7.20,-1.59 7.64,-1.71 8.11,-1.73 8.58,-1.74 9.03,-1.64 9.49,-1.54 9.91,-1.34 10.33,-1.14 10.69,-0.84 11.04,-0.54 11.32,-0.16 11.60,0.20 11.77,0.63 11.95,1.06 12.02,1.53 12.09,1.99 12.05,2.45 12.01,2.92 11.86,3.36 11.70,3.80 11.45,4.19 11.20,4.58 10.86,4.90 10.52,5.22 8.44,5.36 6.37,5.50 5.87,5.11 5.38,4.72 5.04,4.20 4.69,3.68 4.53,3.07 4.37,2.47 4.42,1.84 4.46,1.22 4.70,0.64 4.94,0.06 5.35,-0.40 5.76,-0.87 6.30,-1.19 6.84,-1.50 7.46,-1.63 8.07,-1.75 8.69,-1.68 9.31,-1.60 9.88,-1.33 10.44,-1.06 10.89,-0.62 11.34,-0.19 11.62,0.36 11.91,0.92 12.00,1.54 12.09,2.16 11.98,2.77 11.88,3.39 11.57,3.94 11.27,4.49 10.81,4.91 10.35,5.33 9.78,5.59 9.21,5.84 8.59,5.90 7.96,5.96 7.35,5.82 6.74,5.68 6.21,5.35 5.68,5.02 5.28,4.53 4.88,4.05 4.66,3.47 4.44,2.88 4.41,2.26 4.39,1.63 4.56,1.03 4.74,0.43 5.10,-0.07 5.45,-0.59 5.96,-0.96 6.46,-1.33 7.06,-1.52 7.65,-1.71 8.28,-1.70 8.91,-1.70 7.42,-1.35 5.93,-1.00 6.34,-1.23 6.75,-1.46 7.19,-1.59 7.64,-1.71 8.11,-1.73 8.58,-1.74 9.03,-1.64 9.49,-1.54 9.91,-1.34 10.33,-1.14 10.68,-0.84 11.04,-0.54 11.32,-0.16 11.60,0.20 11.77,0.63 11.95,1.06 12.02,1.52 12.09,1.99 12.05,2.45 12.01,2.91 11.86,3.36 11.70,3.80 11.45,4.19 11.20,4.58 10.86,4.90 10.52,5.22 9.46,6.86 8.40,8.51 7.29,8.91 6.17,9.32 4.92,9.34 3.67,9.37 2.50,9.05 1.34,8.74 0.31,8.07 -0.70,7.40 -1.59,6.62 -2.47,5.84 -3.05,4.79 -3.62,3.75 -3.94,2.68 -4.25,1.61 -4.20,0.37 -4.16,-0.85 -3.64,-2.16 -3.12,-3.47 -2.19,-4.44 -1.25,-5.40 0.03,-5.94 1.33,-6.48 2.52,-6.57 3.71,-6.65 4.88,-6.59 6.05,-6.54 7.16,-6.24 8.26,-5.95 9.46,-5.22 10.66,-4.49 11.52,-3.80 12.39,-3.11 13.03,-2.11 13.67,-1.12 13.91,0.14 14.14,1.41 14.00,2.64 13.85,3.87 13.41,4.87 12.98,5.86 12.08,6.79 11.17,7.71 10.15,8.35 9.12,8.99 8.02,9.30 6.92,9.61 5.53,9.44 4.14,9.27 2.97,8.73 1.80,8.19 0.79,7.56 -0.20,6.94 -1.05,6.06 -1.90,5.17 -2.37,4.13 -2.85,3.09 -2.78,1.83 -2.70,0.58 -2.57,0.08 -2.43,-0.41 -2.35,-0.70 -2.26,-0.98 -2.11,-1.24 -1.96,-1.50 -1.75,-1.71 -1.55,-1.92 -1.29,-2.08 -1.04,-2.24 -0.76,-2.33 -0.47,-2.42 -0.17,-2.45 0.11,-2.47 0.41,-2.42 0.70,-2.37 0.98,-2.25 1.25,-2.13 1.49,-1.95 1.72,-1.77 1.91,-1.53 2.10,-1.30 2.22,-1.03 2.35,-0.76 2.41,-0.47 2.46,-0.18 2.45,0.11 2.43,0.41 2.43,0.41 L 2.43,0.41 Z"></path></g><g transform="translate(30.44796675749558 12.21075883349863) rotate(0 -0.01251627374972486 0.019255805768921164)" stroke="none"><path d="M0 0 L-0.01 0 L-0.03 0.04 L0 0" stroke="none" stroke-width="0" fill="#136a6a" fill-rule="evenodd"></path><path fill="#136a6a" d="M 2.12,-0.66 Q 2.12,-0.66 2.15,-0.13 2.18,0.40 1.96,0.88 1.74,1.36 1.32,1.69 0.91,2.02 0.38,2.12 -0.13,2.21 -0.64,2.05 -1.14,1.90 -1.52,1.52 -1.90,1.14 -2.05,0.64 -2.21,0.13 -2.12,-0.38 -2.02,-0.91 -1.69,-1.32 -1.36,-1.74 -0.88,-1.96 -0.39,-2.18 0.13,-2.15 0.66,-2.11 1.11,-1.84 1.57,-1.56 1.84,-1.11 L 2.12,-0.66 Z"></path></g></svg>