<svg version="1.1" xmlns="http://www.w3.org/2000/svg" viewBox="0 0 70.16053988771864 67.51307433474062" width="70.16053988771864" height="67.51307433474062">
  <!-- svg-source:excalidraw -->
  
  <defs>
    <style class="style-fonts">
      @font-face {
        font-family: "Virgil";
        src: url("https://excalidraw.com/Virgil.woff2");
      }
      @font-face {
        font-family: "Cascadia";
        src: url("https://excalidraw.com/Cascadia.woff2");
      }
    </style>
  </defs>
  <g transform="translate(11.759938722382685 56.33375030857064) rotate(0 23.702403271610137 -8.57338177129725)" stroke="none"><path fill="#000000" d="M -2.22,-1.48 Q -2.22,-1.48 -1.69,-2.32 -1.17,-3.15 -0.54,-4.27 0.09,-5.38 0.67,-6.35 1.25,-7.33 1.93,-8.34 2.60,-9.35 3.28,-10.28 3.95,-11.20 4.69,-12.06 5.43,-12.93 6.16,-13.72 6.89,-14.51 8.24,-15.76 9.58,-17.01 10.52,-17.66 11.45,-18.31 12.50,-18.99 13.56,-19.67 14.97,-20.31 16.38,-20.94 17.73,-21.24 19.08,-21.54 20.65,-21.68 22.22,-21.82 23.34,-21.81 24.46,-21.81 25.56,-21.61 26.67,-21.42 28.23,-20.93 29.80,-20.43 31.05,-19.87 32.31,-19.30 33.27,-18.76 34.24,-18.22 35.33,-17.54 36.42,-16.87 37.58,-15.95 38.74,-15.04 39.49,-14.17 40.24,-13.30 41.15,-12.38 42.06,-11.46 43.29,-10.31 44.52,-9.17 45.27,-8.32 46.02,-7.48 46.84,-6.59 47.65,-5.70 48.42,-4.48 49.19,-3.27 49.92,-1.94 50.65,-0.62 50.82,-0.19 50.98,0.22 51.04,0.66 51.10,1.11 51.05,1.56 50.99,2.01 50.84,2.44 50.68,2.86 50.43,3.23 50.17,3.61 49.84,3.91 49.50,4.21 49.10,4.43 48.71,4.64 48.27,4.75 47.83,4.86 47.38,4.87 46.93,4.87 46.49,4.77 46.05,4.66 45.65,4.45 45.24,4.25 44.90,3.95 44.56,3.65 44.30,3.28 44.04,2.91 44.51,3.48 44.98,4.05 44.58,3.60 44.17,3.14 43.94,2.58 43.70,2.02 43.66,1.42 43.61,0.81 43.76,0.23 43.91,-0.35 44.24,-0.86 44.57,-1.37 45.05,-1.75 45.53,-2.12 46.10,-2.33 46.67,-2.53 47.27,-2.54 47.88,-2.56 48.46,-2.37 49.04,-2.19 49.53,-1.83 50.02,-1.48 50.37,-0.98 50.72,-0.49 50.89,0.08 51.07,0.67 51.04,1.27 51.02,1.88 50.81,2.45 50.60,3.01 50.21,3.48 49.83,3.95 49.32,4.28 48.80,4.60 48.21,4.74 47.62,4.88 47.02,4.83 46.42,4.78 45.86,4.53 45.30,4.29 44.86,3.88 44.41,3.47 44.11,2.94 43.82,2.41 43.71,1.82 43.60,1.22 43.68,0.62 43.77,0.02 44.04,-0.51 44.32,-1.05 44.75,-1.48 45.18,-1.91 45.73,-2.17 46.27,-2.44 46.87,-2.51 47.48,-2.59 48.07,-2.47 48.67,-2.35 49.66,-1.49 50.65,-0.62 50.82,-0.19 50.98,0.22 51.04,0.66 51.10,1.11 51.05,1.56 50.99,2.01 50.84,2.43 50.68,2.86 50.43,3.23 50.17,3.61 49.84,3.91 49.50,4.21 49.10,4.43 48.71,4.64 48.27,4.75 47.83,4.86 47.38,4.87 46.93,4.87 46.49,4.77 46.05,4.66 45.65,4.45 45.24,4.25 44.90,3.95 44.56,3.65 44.30,3.28 44.04,2.92 42.78,0.76 41.53,-1.39 40.78,-2.23 40.03,-3.07 39.19,-4.02 38.35,-4.97 37.42,-5.77 36.48,-6.57 35.53,-7.60 34.58,-8.63 33.84,-9.49 33.11,-10.35 32.14,-10.99 31.17,-11.64 30.12,-12.26 29.08,-12.87 27.71,-13.44 26.33,-14.01 25.24,-14.34 24.14,-14.68 22.80,-14.67 21.46,-14.66 20.26,-14.53 19.07,-14.40 17.81,-13.92 16.56,-13.44 15.47,-12.80 14.38,-12.16 13.33,-11.37 12.28,-10.58 11.22,-9.55 10.15,-8.52 9.19,-7.51 8.23,-6.51 7.55,-5.67 6.87,-4.83 5.89,-3.56 4.92,-2.29 4.14,-1.20 3.36,-0.12 2.79,0.68 2.22,1.48 2.01,1.73 1.80,1.97 1.54,2.16 1.27,2.34 0.97,2.46 0.67,2.58 0.35,2.63 0.03,2.67 -0.28,2.64 -0.60,2.60 -0.90,2.49 -1.20,2.38 -1.47,2.20 -1.74,2.02 -1.96,1.78 -2.17,1.55 -2.33,1.26 -2.48,0.98 -2.56,0.67 -2.65,0.36 -2.65,0.03 -2.65,-0.28 -2.58,-0.59 -2.51,-0.91 -2.36,-1.19 -2.22,-1.48 -2.22,-1.48 L -2.22,-1.48 Z"></path></g><g transform="translate(10 54.2297401745991) rotate(0 25.08026994385932 -8.57338177129725)" stroke="none"><path fill="#136a6a" d="M -2.18,-1.54 Q -2.18,-1.54 -1.62,-2.38 -1.06,-3.21 -0.39,-4.33 0.27,-5.45 0.89,-6.42 1.51,-7.39 2.23,-8.40 2.95,-9.42 3.67,-10.34 4.38,-11.26 5.17,-12.13 5.95,-12.99 6.73,-13.79 7.50,-14.58 8.92,-15.82 10.34,-17.06 11.32,-17.70 12.30,-18.35 13.41,-19.03 14.53,-19.71 15.99,-20.33 17.45,-20.96 18.85,-21.25 20.25,-21.54 21.89,-21.67 23.54,-21.81 24.70,-21.80 25.87,-21.80 26.99,-21.61 28.11,-21.42 29.76,-20.93 31.41,-20.44 32.71,-19.88 34.01,-19.32 35.03,-18.78 36.04,-18.25 37.19,-17.58 38.34,-16.91 39.55,-16.00 40.76,-15.10 41.55,-14.23 42.34,-13.37 43.09,-12.61 43.85,-11.85 44.89,-11.04 45.92,-10.22 46.70,-9.40 47.48,-8.58 48.34,-7.69 49.19,-6.81 50.10,-5.74 51.00,-4.68 52.18,-2.68 53.35,-0.69 53.53,-0.27 53.70,0.13 53.77,0.58 53.84,1.02 53.80,1.47 53.76,1.92 53.61,2.35 53.47,2.78 53.22,3.15 52.98,3.53 52.65,3.84 52.32,4.15 51.93,4.38 51.54,4.60 51.10,4.72 50.67,4.84 50.22,4.86 49.77,4.87 49.33,4.78 48.89,4.68 48.48,4.49 48.07,4.29 47.73,4.00 47.38,3.71 47.11,3.35 46.84,2.99 47.32,3.54 47.79,4.09 47.38,3.64 46.97,3.19 46.72,2.64 46.48,2.09 46.42,1.49 46.37,0.88 46.51,0.29 46.65,-0.29 46.97,-0.80 47.29,-1.31 47.75,-1.70 48.22,-2.08 48.79,-2.30 49.35,-2.51 49.96,-2.53 50.56,-2.56 51.14,-2.39 51.72,-2.21 52.22,-1.87 52.72,-1.52 53.07,-1.03 53.43,-0.54 53.62,0.02 53.80,0.60 53.79,1.20 53.78,1.81 53.58,2.38 53.38,2.95 53.00,3.43 52.63,3.90 52.12,4.23 51.62,4.57 51.03,4.72 50.44,4.87 49.84,4.83 49.24,4.79 48.68,4.55 48.12,4.32 47.66,3.92 47.21,3.52 46.91,3.00 46.60,2.47 46.48,1.88 46.36,1.29 46.44,0.69 46.51,0.09 46.77,-0.45 47.04,-0.99 47.46,-1.43 47.88,-1.86 48.42,-2.13 48.96,-2.41 49.56,-2.50 50.16,-2.59 50.76,-2.48 51.35,-2.37 52.35,-1.53 53.35,-0.69 53.53,-0.27 53.70,0.13 53.77,0.58 53.84,1.02 53.80,1.47 53.76,1.92 53.61,2.35 53.47,2.78 53.22,3.15 52.98,3.53 52.65,3.84 52.32,4.15 51.93,4.38 51.54,4.60 51.10,4.72 50.67,4.84 50.22,4.86 49.77,4.87 49.33,4.78 48.89,4.68 48.48,4.49 48.08,4.29 47.73,4.00 47.38,3.71 47.11,3.35 46.84,2.99 45.51,0.83 44.18,-1.32 43.39,-2.16 42.60,-3.00 41.70,-3.96 40.80,-4.92 39.82,-5.71 38.84,-6.51 38.08,-7.26 37.33,-8.01 36.57,-8.90 35.81,-9.79 34.84,-10.48 33.88,-11.18 32.85,-11.79 31.83,-12.40 30.54,-13.01 29.25,-13.61 27.83,-14.04 26.42,-14.47 25.16,-14.60 23.89,-14.73 22.56,-14.64 21.24,-14.55 20.04,-14.34 18.83,-14.12 17.73,-13.57 16.62,-13.01 15.47,-12.34 14.31,-11.67 13.19,-10.77 12.07,-9.86 10.94,-8.81 9.82,-7.77 8.81,-6.70 7.81,-5.63 7.08,-4.77 6.36,-3.91 5.69,-3.06 5.02,-2.22 4.20,-1.14 3.39,-0.06 2.78,0.74 2.18,1.54 1.96,1.78 1.75,2.02 1.48,2.20 1.21,2.38 0.91,2.49 0.61,2.60 0.28,2.64 -0.03,2.67 -0.35,2.63 -0.67,2.59 -0.97,2.47 -1.27,2.35 -1.53,2.16 -1.79,1.98 -2.00,1.73 -2.22,1.49 -2.36,1.20 -2.51,0.91 -2.58,0.60 -2.66,0.29 -2.65,-0.03 -2.65,-0.35 -2.57,-0.66 -2.49,-0.97 -2.33,-1.26 -2.18,-1.54 -2.18,-1.54 L -2.18,-1.54 Z"></path></g><g stroke-linecap="round" transform="translate(22.925368661396078 11.069161213468533) rotate(0 8.93210409856033 8.152424927024981)"><path d="M17.86 8.15 C17.86 8.62, 17.82 9.1, 17.73 9.57 C17.64 10.03, 17.5 10.5, 17.33 10.94 C17.15 11.38, 16.93 11.82, 16.67 12.23 C16.41 12.64, 16.11 13.03, 15.77 13.39 C15.44 13.75, 15.07 14.09, 14.67 14.4 C14.28 14.7, 13.85 14.98, 13.4 15.21 C12.95 15.45, 12.47 15.65, 11.99 15.81 C11.5 15.97, 10.99 16.1, 10.48 16.18 C9.97 16.26, 9.45 16.3, 8.93 16.3 C8.42 16.3, 7.89 16.26, 7.38 16.18 C6.87 16.1, 6.36 15.97, 5.88 15.81 C5.39 15.65, 4.91 15.45, 4.47 15.21 C4.02 14.98, 3.59 14.7, 3.19 14.4 C2.79 14.09, 2.42 13.75, 2.09 13.39 C1.76 13.03, 1.46 12.64, 1.2 12.23 C0.94 11.82, 0.72 11.38, 0.54 10.94 C0.36 10.5, 0.23 10.03, 0.14 9.57 C0.05 9.1, 0 8.62, 0 8.15 C0 7.68, 0.05 7.2, 0.14 6.74 C0.23 6.27, 0.36 5.81, 0.54 5.36 C0.72 4.92, 0.94 4.48, 1.2 4.08 C1.46 3.67, 1.76 3.27, 2.09 2.91 C2.42 2.55, 2.79 2.21, 3.19 1.91 C3.59 1.6, 4.02 1.33, 4.47 1.09 C4.91 0.86, 5.39 0.65, 5.88 0.49 C6.36 0.33, 6.87 0.21, 7.38 0.12 C7.89 0.04, 8.42 0, 8.93 0 C9.45 0, 9.97 0.04, 10.48 0.12 C10.99 0.21, 11.5 0.33, 11.99 0.49 C12.47 0.65, 12.95 0.86, 13.4 1.09 C13.85 1.33, 14.28 1.6, 14.67 1.91 C15.07 2.21, 15.44 2.55, 15.77 2.91 C16.11 3.27, 16.41 3.67, 16.67 4.08 C16.93 4.48, 17.15 4.92, 17.33 5.36 C17.5 5.81, 17.64 6.27, 17.73 6.74 C17.82 7.2, 17.84 7.92, 17.86 8.15 C17.89 8.39, 17.89 7.92, 17.86 8.15" stroke="none" stroke-width="0" fill="#000000"></path><path d="M17.86 8.15 C17.86 8.62, 17.82 9.1, 17.73 9.57 C17.64 10.03, 17.5 10.5, 17.33 10.94 C17.15 11.38, 16.93 11.82, 16.67 12.23 C16.41 12.64, 16.11 13.03, 15.77 13.39 C15.44 13.75, 15.07 14.09, 14.67 14.4 C14.28 14.7, 13.85 14.98, 13.4 15.21 C12.95 15.45, 12.47 15.65, 11.99 15.81 C11.5 15.97, 10.99 16.1, 10.48 16.18 C9.97 16.26, 9.45 16.3, 8.93 16.3 C8.42 16.3, 7.89 16.26, 7.38 16.18 C6.87 16.1, 6.36 15.97, 5.88 15.81 C5.39 15.65, 4.91 15.45, 4.47 15.21 C4.02 14.98, 3.59 14.7, 3.19 14.4 C2.79 14.09, 2.42 13.75, 2.09 13.39 C1.76 13.03, 1.46 12.64, 1.2 12.23 C0.94 11.82, 0.72 11.38, 0.54 10.94 C0.36 10.5, 0.23 10.03, 0.14 9.57 C0.05 9.1, 0 8.62, 0 8.15 C0 7.68, 0.05 7.2, 0.14 6.74 C0.23 6.27, 0.36 5.81, 0.54 5.36 C0.72 4.92, 0.94 4.48, 1.2 4.08 C1.46 3.67, 1.76 3.27, 2.09 2.91 C2.42 2.55, 2.79 2.21, 3.19 1.91 C3.59 1.6, 4.02 1.33, 4.47 1.09 C4.91 0.86, 5.39 0.65, 5.88 0.49 C6.36 0.33, 6.87 0.21, 7.38 0.12 C7.89 0.04, 8.42 0, 8.93 0 C9.45 0, 9.97 0.04, 10.48 0.12 C10.99 0.21, 11.5 0.33, 11.99 0.49 C12.47 0.65, 12.95 0.86, 13.4 1.09 C13.85 1.33, 14.28 1.6, 14.67 1.91 C15.07 2.21, 15.44 2.55, 15.77 2.91 C16.11 3.27, 16.41 3.67, 16.67 4.08 C16.93 4.48, 17.15 4.92, 17.33 5.36 C17.5 5.81, 17.64 6.27, 17.73 6.74 C17.82 7.2, 17.84 7.92, 17.86 8.15 C17.89 8.39, 17.89 7.92, 17.86 8.15" stroke="transparent" stroke-width="4" fill="none"></path></g><g stroke-linecap="round" transform="translate(20.684144414865386 10) rotate(0 8.93210409856033 8.152424927024981)"><path d="M17.86 8.15 C17.86 8.62, 17.82 9.1, 17.73 9.57 C17.64 10.03, 17.5 10.5, 17.33 10.94 C17.15 11.38, 16.93 11.82, 16.67 12.23 C16.41 12.64, 16.11 13.03, 15.77 13.39 C15.44 13.75, 15.07 14.09, 14.67 14.4 C14.28 14.7, 13.85 14.98, 13.4 15.21 C12.95 15.45, 12.47 15.65, 11.99 15.81 C11.5 15.97, 10.99 16.1, 10.48 16.18 C9.97 16.26, 9.45 16.3, 8.93 16.3 C8.42 16.3, 7.89 16.26, 7.38 16.18 C6.87 16.1, 6.36 15.97, 5.88 15.81 C5.39 15.65, 4.91 15.45, 4.47 15.21 C4.02 14.98, 3.59 14.7, 3.19 14.4 C2.79 14.09, 2.42 13.75, 2.09 13.39 C1.76 13.03, 1.46 12.64, 1.2 12.23 C0.94 11.82, 0.72 11.38, 0.54 10.94 C0.36 10.5, 0.23 10.03, 0.14 9.57 C0.05 9.1, 0 8.62, 0 8.15 C0 7.68, 0.05 7.2, 0.14 6.74 C0.23 6.27, 0.36 5.81, 0.54 5.36 C0.72 4.92, 0.94 4.48, 1.2 4.08 C1.46 3.67, 1.76 3.27, 2.09 2.91 C2.42 2.55, 2.79 2.21, 3.19 1.91 C3.59 1.6, 4.02 1.33, 4.47 1.09 C4.91 0.86, 5.39 0.65, 5.88 0.49 C6.36 0.33, 6.87 0.21, 7.38 0.12 C7.89 0.04, 8.42 0, 8.93 0 C9.45 0, 9.97 0.04, 10.48 0.12 C10.99 0.21, 11.5 0.33, 11.99 0.49 C12.47 0.65, 12.95 0.86, 13.4 1.09 C13.85 1.33, 14.28 1.6, 14.67 1.91 C15.07 2.21, 15.44 2.55, 15.77 2.91 C16.11 3.27, 16.41 3.67, 16.67 4.08 C16.93 4.48, 17.15 4.92, 17.33 5.36 C17.5 5.81, 17.64 6.27, 17.73 6.74 C17.82 7.2, 17.84 7.92, 17.86 8.15 C17.89 8.39, 17.89 7.92, 17.86 8.15" stroke="none" stroke-width="0" fill="#136a6a"></path><path d="M17.86 8.15 C17.86 8.62, 17.82 9.1, 17.73 9.57 C17.64 10.03, 17.5 10.5, 17.33 10.94 C17.15 11.38, 16.93 11.82, 16.67 12.23 C16.41 12.64, 16.11 13.03, 15.77 13.39 C15.44 13.75, 15.07 14.09, 14.67 14.4 C14.28 14.7, 13.85 14.98, 13.4 15.21 C12.95 15.45, 12.47 15.65, 11.99 15.81 C11.5 15.97, 10.99 16.1, 10.48 16.18 C9.97 16.26, 9.45 16.3, 8.93 16.3 C8.42 16.3, 7.89 16.26, 7.38 16.18 C6.87 16.1, 6.36 15.97, 5.88 15.81 C5.39 15.65, 4.91 15.45, 4.47 15.21 C4.02 14.98, 3.59 14.7, 3.19 14.4 C2.79 14.09, 2.42 13.75, 2.09 13.39 C1.76 13.03, 1.46 12.64, 1.2 12.23 C0.94 11.82, 0.72 11.38, 0.54 10.94 C0.36 10.5, 0.23 10.03, 0.14 9.57 C0.05 9.1, 0 8.62, 0 8.15 C0 7.68, 0.05 7.2, 0.14 6.74 C0.23 6.27, 0.36 5.81, 0.54 5.36 C0.72 4.92, 0.94 4.48, 1.2 4.08 C1.46 3.67, 1.76 3.27, 2.09 2.91 C2.42 2.55, 2.79 2.21, 3.19 1.91 C3.59 1.6, 4.02 1.33, 4.47 1.09 C4.91 0.86, 5.39 0.65, 5.88 0.49 C6.36 0.33, 6.87 0.21, 7.38 0.12 C7.89 0.04, 8.42 0, 8.93 0 C9.45 0, 9.97 0.04, 10.48 0.12 C10.99 0.21, 11.5 0.33, 11.99 0.49 C12.47 0.65, 12.95 0.86, 13.4 1.09 C13.85 1.33, 14.28 1.6, 14.67 1.91 C15.07 2.21, 15.44 2.55, 15.77 2.91 C16.11 3.27, 16.41 3.67, 16.67 4.08 C16.93 4.48, 17.15 4.92, 17.33 5.36 C17.5 5.81, 17.64 6.27, 17.73 6.74 C17.82 7.2, 17.84 7.92, 17.86 8.15 C17.89 8.39, 17.89 7.92, 17.86 8.15" stroke="transparent" stroke-width="4" fill="none"></path></g></svg>