<svg version="1.1" xmlns="http://www.w3.org/2000/svg" viewBox="0 0 66.48534570320453 78.27171245797399" width="66.48534570320453" height="78.27171245797399">
  <!-- svg-source:excalidraw -->
  
  <defs>
    <style class="style-fonts">
      @font-face {
        font-family: "Virgil";
        src: url("https://excalidraw.com/Virgil.woff2");
      }
      @font-face {
        font-family: "Cascadia";
        src: url("https://excalidraw.com/Cascadia.woff2");
      }
    </style>
  </defs>
  <g stroke-linecap="round" transform="translate(9.490981874510453 25.17360654163315) rotate(291.03479992400344 24.228797724025753 15.073461033299395)"><path d="M0 0 L48.46 0 L48.46 30.15 L0 30.15" stroke="none" stroke-width="0" fill="#000000"></path><path d="M0 0 C9.78 0, 19.56 0, 48.46 0 M0 0 C10.87 0, 21.74 0, 48.46 0 M48.46 0 C48.46 9.83, 48.46 19.66, 48.46 30.15 M48.46 0 C48.46 9.74, 48.46 19.48, 48.46 30.15 M48.46 30.15 C31.81 30.15, 15.16 30.15, 0 30.15 M48.46 30.15 C36.3 30.15, 24.15 30.15, 0 30.15 M0 30.15 C0 23.67, 0 17.2, 0 0 M0 30.15 C0 24.06, 0 17.97, 0 0" stroke="#000000" stroke-width="2" fill="none"></path></g><g stroke-linecap="round" transform="translate(8.53676838064257 22.95118384974205) rotate(291.03479992400344 24.228797724025753 15.073461033299395)"><path d="M0 0 L48.46 0 L48.46 30.15 L0 30.15" stroke="none" stroke-width="0" fill="#a8d9d4"></path><path d="M0 0 C17 0, 34 0, 48.46 0 M0 0 C11.43 0, 22.85 0, 48.46 0 M48.46 0 C48.46 6.42, 48.46 12.84, 48.46 30.15 M48.46 0 C48.46 11.87, 48.46 23.74, 48.46 30.15 M48.46 30.15 C37.03 30.15, 25.6 30.15, 0 30.15 M48.46 30.15 C33.31 30.15, 18.16 30.15, 0 30.15 M0 30.15 C0 23.41, 0 16.68, 0 0 M0 30.15 C0 21.59, 0 13.04, 0 0" stroke="#7a7a7a" stroke-width="2" fill="none"></path></g></svg>